# xmcd
#
# Track frame offsets: 
#        150
#        12164
#        22226
#        33927
#        47295
#        64280
#        80622
#        98089
#        109774
#        125254
#        141886
#        157215
#        173866
#        188174
#
# Disc length: 2719 seconds
#
# Revision: 0
# Processed by: cddbd v1.5.2PL0 Copyright (c) Steve Scherf et al.
# Submitted via: ExactAudioCopy v0.99pb3
#
DISCID=b80a9d0e
DTITLE=Southern Star Bluegrass - Live 25th Anniversary Celebration
DYEAR=2002
DGENRE=Blues
TTITLE0=Little Maggie
TTITLE1=Fox On The Run
TTITLE2=Rank Strangers
TTITLE3=The Man In The Middle
TTITLE4=Blue Moon Of Kentucky
TTITLE5=A Song For Life
TTITLE6=Dueling Banjos
TTITLE7=Man Of Constant Sorrow
TTITLE8=Sally Goodin
TTITLE9=Can't You Here Me Calling
TTITLE10=Ashokan Farewell
TTITLE11=Gand Ole Opry Song
TTITLE12=Perfume, Powder And Lead
TTITLE13=Orange Blossom Special
EXTD=
EXTT0=
EXTT1=
EXTT2=
EXTT3=
EXTT4=
EXTT5=
EXTT6=
EXTT7=
EXTT8=
EXTT9=
EXTT10=
EXTT11=
EXTT12=
EXTT13=
PLAYORDER=
